<?xml version="1.0" encoding="UTF-8" standalone="no"?>
<!-- Created with Inkscape (http://www.inkscape.org/) -->

<svg
   width="512mm"
   height="512mm"
   viewBox="0 0 512 512"
   version="1.1"
   id="svg1"
   xml:space="preserve"
   inkscape:version="1.3.2 (091e20e, 2023-11-25)"
   sodipodi:docname="webstir.svg"
   inkscape:export-filename="webstir-blue.png"
   inkscape:export-xdpi="43.78476"
   inkscape:export-ydpi="43.78476"
   xmlns:inkscape="http://www.inkscape.org/namespaces/inkscape"
   xmlns:sodipodi="http://sodipodi.sourceforge.net/DTD/sodipodi-0.dtd"
   xmlns="http://www.w3.org/2000/svg"
   xmlns:svg="http://www.w3.org/2000/svg"><sodipodi:namedview
     id="namedview1"
     pagecolor="#fffaff"
     bordercolor="#ffffff"
     borderopacity="1"
     inkscape:showpageshadow="0"
     inkscape:pageopacity="0"
     inkscape:pagecheckerboard="1"
     inkscape:deskcolor="#505050"
     inkscape:document-units="mm"
     showgrid="true"
     inkscape:zoom="0.28530364"
     inkscape:cx="1135.6322"
     inkscape:cy="1188.2078"
     inkscape:window-width="1512"
     inkscape:window-height="949"
     inkscape:window-x="0"
     inkscape:window-y="33"
     inkscape:window-maximized="0"
     inkscape:current-layer="layer1"><inkscape:grid
       id="grid1"
       units="mm"
       originx="967.55906"
       originy="967.55906"
       spacingx="0.99999997"
       spacingy="0.99999997"
       empcolor="#0099e5"
       empopacity="0.30196078"
       color="#0099e5"
       opacity="0.14901961"
       empspacing="5"
       dotted="false"
       gridanglex="30"
       gridanglez="30"
       visible="true"
       snapvisiblegridlinesonly="true" /></sodipodi:namedview><defs
     id="defs1" /><g
     inkscape:label="Layer 1"
     inkscape:groupmode="layer"
     id="layer1"><rect
       style="display:none;fill:#ffffff;stroke:none;stroke-width:15.8887;stroke-linecap:round;stroke-linejoin:round;stroke-dasharray:none;stroke-opacity:1;paint-order:markers fill stroke"
       id="rect14"
       width="556.42468"
       height="565.69849"
       x="-22.212341"
       y="-26.849243"
       rx="0"
       ry="0" /><path
       id="rect1"
       style="fill:none;stroke:#0b314f;stroke-width:21.1286;paint-order:markers fill stroke"
       d="m 249.65652,23.205994 h 12.98856 c 111.69719,0 201.61948,84.744156 201.61948,190.009326 v 85.56936 c 0,105.26517 -89.92229,190.00933 -201.61948,190.00933 h -12.98856 c -111.69719,0 -201.619472,-84.74416 -201.619472,-190.00933 v -85.56936 c 0,-105.26517 89.922282,-190.009326 201.619472,-190.009326 z" /><path
       id="rect2"
       style="fill:none;stroke:#0b314f;stroke-width:18.2145;stroke-dasharray:none;stroke-opacity:1;paint-order:markers fill stroke"
       d="m 44.058391,191.97153 c -14.470037,0 -26.119524,9.07711 -26.119524,20.35258 v 75.32063 c 0,11.2755 11.649487,20.35261 26.119524,20.35261 0.93247,0 1.852137,-0.0404 2.7588,-0.1141 V 192.08544 c -0.906663,-0.0736 -1.826333,-0.11396 -2.7588,-0.11396 z" /><path
       id="rect5"
       style="fill:none;stroke-width:21.1286;paint-order:markers fill stroke"
       d="m 17.702391,179.6481 h 6.861312 v 82.58594 h -6.861312 z" /><path
       id="path9"
       style="fill:none;stroke:#0b314f;stroke-width:18.2145;stroke-dasharray:none;stroke-opacity:1;paint-order:markers fill stroke"
       d="m 467.94159,307.9973 c 14.47005,0 26.11954,-9.07712 26.11954,-20.35259 v -75.32062 c 0,-11.27551 -11.64949,-20.35261 -26.11954,-20.35261 -0.93248,0 -1.85214,0.0404 -2.75881,0.11409 v 115.79781 c 0.90667,0.0736 1.82635,0.11397 2.75881,0.11397 z" /><path
       id="path10"
       style="fill:none;stroke:#0b314f;stroke-width:21.1286;paint-order:markers fill stroke"
       d="m 160.69324,296.77823 a 65.878456,81.300491 0 0 1 -67.611696,-79.07673 65.878456,81.300491 0 0 1 64.054706,-83.46498 65.878456,81.300491 0 0 1 67.65302,79.02287 65.878456,81.300491 0 0 1 -64.01105,83.51598" /><path
       style="fill:none;stroke:#0b314f;stroke-width:21.1286;stroke-dasharray:none;stroke-opacity:1;paint-order:markers fill stroke"
       d="M 114.77974,274.25154 200.01157,154.27256"
       id="path11" /><path
       id="path12"
       style="fill:none;stroke:#0b314f;stroke-width:21.1286;paint-order:markers fill stroke"
       d="m 354.84541,296.77823 a 65.878456,81.300491 0 0 1 -67.61169,-79.07673 65.878456,81.300491 0 0 1 64.05471,-83.46498 65.878456,81.300491 0 0 1 67.65302,79.02287 65.878456,81.300491 0 0 1 -64.01105,83.51598" /><path
       style="fill:none;stroke:#0b314f;stroke-width:21.1286;stroke-dasharray:none;stroke-opacity:1;paint-order:markers fill stroke"
       d="M 308.93213,274.25154 394.16395,154.27256"
       id="path13" /><path
       style="fill:none;stroke:#0b314f;stroke-width:21.1286;stroke-linecap:round;stroke-linejoin:round;stroke-dasharray:none;stroke-opacity:1;paint-order:markers fill stroke"
       d="m 152.65356,346.81827 52.6043,61.04578 49.70484,-57.83284 50.94746,58.23445 52.1901,-60.64414"
       id="path14" /></g></svg>
